<svg width="8" height="9" viewBox="0 0 8 9" fill="none" xmlns="http://www.w3.org/2000/svg">
<path d="M4.12413 3.58602L3.43817 4.20147C3.52822 4.51205 3.65491 4.81082 3.81557 5.09146C3.98279 5.37017 4.18394 5.62705 4.41443 5.85621L5.30277 5.5825C5.80044 5.42905 6.34373 5.58664 6.67468 5.98063L7.18064 6.58281C7.38549 6.82455 7.48819 7.13654 7.46698 7.4527C7.44577 7.76885 7.30231 8.06433 7.06701 8.27654C6.24171 9.02968 4.97099 9.28432 4.01962 8.53699C3.18347 7.87861 2.476 7.0716 1.93273 6.15647C1.38826 5.24565 1.02389 4.2387 0.859422 3.19037C0.676943 2.0109 1.5404 1.06699 2.61702 0.74516C3.25901 0.552728 3.94414 0.882848 4.1797 1.4983L4.45756 2.22406C4.64004 2.70183 4.50899 3.24014 4.12413 3.58519V3.58602Z" fill="#E52B39"/>
</svg>
